<svg aria-roledescription="er" role="graphics-document document" viewBox="0 0 470.51959228515625 598" style="max-width: 100%;" xmlns="http://www.w3.org/2000/svg" width="100%" id="graph-div" height="100%" xmlns:xlink="http://www.w3.org/1999/xlink"><style>@import url("https://cdnjs.cloudflare.com/ajax/libs/font-awesome/6.5.1/css/all.min.css");'</style><style>#graph-div{font-family:"trebuchet ms",verdana,arial,sans-serif;font-size:16px;fill:#333;}#graph-div .error-icon{fill:#552222;}#graph-div .error-text{fill:#552222;stroke:#552222;}#graph-div .edge-thickness-normal{stroke-width:2px;}#graph-div .edge-thickness-thick{stroke-width:3.5px;}#graph-div .edge-pattern-solid{stroke-dasharray:0;}#graph-div .edge-pattern-dashed{stroke-dasharray:3;}#graph-div .edge-pattern-dotted{stroke-dasharray:2;}#graph-div .marker{fill:#333333;stroke:#333333;}#graph-div .marker.cross{stroke:#333333;}#graph-div svg{font-family:"trebuchet ms",verdana,arial,sans-serif;font-size:16px;}#graph-div .entityBox{fill:#ECECFF;stroke:#9370DB;}#graph-div .attributeBoxOdd{fill:#ffffff;stroke:#9370DB;}#graph-div .attributeBoxEven{fill:#f2f2f2;stroke:#9370DB;}#graph-div .relationshipLabelBox{fill:hsl(80, 100%, 96.2745098039%);opacity:0.7;background-color:hsl(80, 100%, 96.2745098039%);}#graph-div .relationshipLabelBox rect{opacity:0.5;}#graph-div .relationshipLine{stroke:#333333;}#graph-div .entityTitleText{text-anchor:middle;font-size:18px;fill:#333;}#graph-div #MD_PARENT_START{fill:#f5f5f5!important;stroke:#333333!important;stroke-width:1;}#graph-div #MD_PARENT_END{fill:#f5f5f5!important;stroke:#333333!important;stroke-width:1;}#graph-div :root{--mermaid-font-family:"trebuchet ms",verdana,arial,sans-serif;}</style><g></g><defs><marker orient="auto" markerHeight="240" markerWidth="190" refY="7" refX="0" id="MD_PARENT_START"><path d="M 18,7 L9,13 L1,7 L9,1 Z"></path></marker></defs><defs><marker orient="auto" markerHeight="28" markerWidth="20" refY="7" refX="19" id="MD_PARENT_END"><path d="M 18,7 L9,13 L1,7 L9,1 Z"></path></marker></defs><defs><marker orient="auto" markerHeight="18" markerWidth="18" refY="9" refX="0" id="ONLY_ONE_START"><path d="M9,0 L9,18 M15,0 L15,18" fill="none" stroke="gray"></path></marker></defs><defs><marker orient="auto" markerHeight="18" markerWidth="18" refY="9" refX="18" id="ONLY_ONE_END"><path d="M3,0 L3,18 M9,0 L9,18" fill="none" stroke="gray"></path></marker></defs><defs><marker orient="auto" markerHeight="18" markerWidth="30" refY="9" refX="0" id="ZERO_OR_ONE_START"><circle r="6" cy="9" cx="21" fill="white" stroke="gray"></circle><path d="M9,0 L9,18" fill="none" stroke="gray"></path></marker></defs><defs><marker orient="auto" markerHeight="18" markerWidth="30" refY="9" refX="30" id="ZERO_OR_ONE_END"><circle r="6" cy="9" cx="9" fill="white" stroke="gray"></circle><path d="M21,0 L21,18" fill="none" stroke="gray"></path></marker></defs><defs><marker orient="auto" markerHeight="36" markerWidth="45" refY="18" refX="18" id="ONE_OR_MORE_START"><path d="M0,18 Q 18,0 36,18 Q 18,36 0,18 M42,9 L42,27" fill="none" stroke="gray"></path></marker></defs><defs><marker orient="auto" markerHeight="36" markerWidth="45" refY="18" refX="27" id="ONE_OR_MORE_END"><path d="M3,9 L3,27 M9,18 Q27,0 45,18 Q27,36 9,18" fill="none" stroke="gray"></path></marker></defs><defs><marker orient="auto" markerHeight="36" markerWidth="57" refY="18" refX="18" id="ZERO_OR_MORE_START"><circle r="6" cy="18" cx="48" fill="white" stroke="gray"></circle><path d="M0,18 Q18,0 36,18 Q18,36 0,18" fill="none" stroke="gray"></path></marker></defs><defs><marker orient="auto" markerHeight="36" markerWidth="57" refY="18" refX="39" id="ZERO_OR_MORE_END"><circle r="6" cy="18" cx="9" fill="white" stroke="gray"></circle><path d="M21,18 Q39,0 57,18 Q39,36 21,18" fill="none" stroke="gray"></path></marker></defs><path style="stroke: gray; fill: none;" marker-start="url(#ONLY_ONE_START)" marker-end="url(#ZERO_OR_MORE_END)" d="M103.286,110L103.286,118.333C103.286,126.667,103.286,143.333,103.286,163.667C103.286,184,103.286,208,103.286,220L103.286,232" class="er relationshipLine"></path><path style="stroke: gray; fill: none;" marker-start="url(#ONLY_ONE_START)" marker-end="url(#ONE_OR_MORE_END)" d="M103.286,344L103.286,356C103.286,368,103.286,392,113.713,412.333C124.14,432.667,144.993,449.333,155.42,457.667L165.847,466" class="er relationshipLine"></path><path style="stroke: gray; fill: none;" marker-start="url(#ONLY_ONE_START)" marker-end="url(#ONE_OR_MORE_END)" d="M368.546,366L368.546,374.333C368.546,382.667,368.546,399.333,358.119,416C347.692,432.667,326.838,449.333,316.411,457.667L305.984,466" class="er relationshipLine"></path><g transform="translate(37.52874755859375,20 )" id="entity-CUSTOMER-7c659eae-ee79-5f5d-acd7-c418f8ad1d67"><rect height="90" width="131.51414489746094" y="0" x="0" class="er entityBox"></rect><text style="dominant-baseline: middle; text-anchor: middle; font-size: 12px;" transform="translate(65.75707244873047,12)" y="0" x="0" id="text-entity-CUSTOMER-7c659eae-ee79-5f5d-acd7-c418f8ad1d67" class="er entityLabel">CUSTOMER</text><rect height="22" width="55.1314697265625" y="24" x="0" class="er attributeBoxOdd"></rect><text style="dominant-baseline: middle; font-size: 10.2px;" transform="translate(5,35)" y="0" x="0" id="text-entity-CUSTOMER-7c659eae-ee79-5f5d-acd7-c418f8ad1d67-attr-1-type" class="er entityLabel">unique_id</text><rect height="22" width="53.69499206542969" y="24" x="55.1314697265625" class="er attributeBoxOdd"></rect><text style="dominant-baseline: middle; font-size: 10.2px;" transform="translate(60.1314697265625,35)" y="0" x="0" id="text-entity-CUSTOMER-7c659eae-ee79-5f5d-acd7-c418f8ad1d67-attr-1-name" class="er entityLabel">INT</text><rect height="22" width="22.68768310546875" y="24" x="108.82646179199219" class="er attributeBoxOdd"></rect><text style="dominant-baseline: middle; font-size: 10.2px;" transform="translate(113.82646179199219,35)" y="0" x="0" id="text-entity-CUSTOMER-7c659eae-ee79-5f5d-acd7-c418f8ad1d67-attr-1-key" class="er entityLabel">PK</text><rect height="22" width="55.1314697265625" y="46" x="0" class="er attributeBoxEven"></rect><text style="dominant-baseline: middle; font-size: 10.2px;" transform="translate(5,57)" y="0" x="0" id="text-entity-CUSTOMER-7c659eae-ee79-5f5d-acd7-c418f8ad1d67-attr-2-type" class="er entityLabel">name</text><rect height="22" width="53.69499206542969" y="46" x="55.1314697265625" class="er attributeBoxEven"></rect><text style="dominant-baseline: middle; font-size: 10.2px;" transform="translate(60.1314697265625,57)" y="0" x="0" id="text-entity-CUSTOMER-7c659eae-ee79-5f5d-acd7-c418f8ad1d67-attr-2-name" class="er entityLabel">VARCHAR</text><rect height="22" width="22.68768310546875" y="46" x="108.82646179199219" class="er attributeBoxEven"></rect><text style="dominant-baseline: middle; font-size: 10.2px;" transform="translate(113.82646179199219,57)" y="0" x="0" id="text-entity-CUSTOMER-7c659eae-ee79-5f5d-acd7-c418f8ad1d67-attr-2-key" class="er entityLabel"></text><rect height="22" width="55.1314697265625" y="68" x="0" class="er attributeBoxOdd"></rect><text style="dominant-baseline: middle; font-size: 10.2px;" transform="translate(5,79)" y="0" x="0" id="text-entity-CUSTOMER-7c659eae-ee79-5f5d-acd7-c418f8ad1d67-attr-3-type" class="er entityLabel">address</text><rect height="22" width="53.69499206542969" y="68" x="55.1314697265625" class="er attributeBoxOdd"></rect><text style="dominant-baseline: middle; font-size: 10.2px;" transform="translate(60.1314697265625,79)" y="0" x="0" id="text-entity-CUSTOMER-7c659eae-ee79-5f5d-acd7-c418f8ad1d67-attr-3-name" class="er entityLabel">VARCHAR</text><rect height="22" width="22.68768310546875" y="68" x="108.82646179199219" class="er attributeBoxOdd"></rect><text style="dominant-baseline: middle; font-size: 10.2px;" transform="translate(113.82646179199219,79)" y="0" x="0" id="text-entity-CUSTOMER-7c659eae-ee79-5f5d-acd7-c418f8ad1d67-attr-3-key" class="er entityLabel"></text></g><g transform="translate(286.57164001464844,210 )" id="entity-BOOK-12b90bf2-7af7-5ded-a124-d6647c4b972e"><rect height="156" width="163.94798278808594" y="0" x="0" class="er entityBox"></rect><text style="dominant-baseline: middle; text-anchor: middle; font-size: 12px;" transform="translate(81.97399139404297,12)" y="0" x="0" id="text-entity-BOOK-12b90bf2-7af7-5ded-a124-d6647c4b972e" class="er entityLabel">BOOK</text><rect height="22" width="87.5653076171875" y="24" x="0" class="er attributeBoxOdd"></rect><text style="dominant-baseline: middle; font-size: 10.2px;" transform="translate(5,35)" y="0" x="0" id="text-entity-BOOK-12b90bf2-7af7-5ded-a124-d6647c4b972e-attr-1-type" class="er entityLabel">ISBN</text><rect height="22" width="53.69499206542969" y="24" x="87.5653076171875" class="er attributeBoxOdd"></rect><text style="dominant-baseline: middle; font-size: 10.2px;" transform="translate(92.5653076171875,35)" y="0" x="0" id="text-entity-BOOK-12b90bf2-7af7-5ded-a124-d6647c4b972e-attr-1-name" class="er entityLabel">VARCHAR</text><rect height="22" width="22.68768310546875" y="24" x="141.2602996826172" class="er attributeBoxOdd"></rect><text style="dominant-baseline: middle; font-size: 10.2px;" transform="translate(146.2602996826172,35)" y="0" x="0" id="text-entity-BOOK-12b90bf2-7af7-5ded-a124-d6647c4b972e-attr-1-key" class="er entityLabel">PK</text><rect height="22" width="87.5653076171875" y="46" x="0" class="er attributeBoxEven"></rect><text style="dominant-baseline: middle; font-size: 10.2px;" transform="translate(5,57)" y="0" x="0" id="text-entity-BOOK-12b90bf2-7af7-5ded-a124-d6647c4b972e-attr-2-type" class="er entityLabel">title</text><rect height="22" width="53.69499206542969" y="46" x="87.5653076171875" class="er attributeBoxEven"></rect><text style="dominant-baseline: middle; font-size: 10.2px;" transform="translate(92.5653076171875,57)" y="0" x="0" id="text-entity-BOOK-12b90bf2-7af7-5ded-a124-d6647c4b972e-attr-2-name" class="er entityLabel">VARCHAR</text><rect height="22" width="22.68768310546875" y="46" x="141.2602996826172" class="er attributeBoxEven"></rect><text style="dominant-baseline: middle; font-size: 10.2px;" transform="translate(146.2602996826172,57)" y="0" x="0" id="text-entity-BOOK-12b90bf2-7af7-5ded-a124-d6647c4b972e-attr-2-key" class="er entityLabel"></text><rect height="22" width="87.5653076171875" y="68" x="0" class="er attributeBoxOdd"></rect><text style="dominant-baseline: middle; font-size: 10.2px;" transform="translate(5,79)" y="0" x="0" id="text-entity-BOOK-12b90bf2-7af7-5ded-a124-d6647c4b972e-attr-3-type" class="er entityLabel">author</text><rect height="22" width="53.69499206542969" y="68" x="87.5653076171875" class="er attributeBoxOdd"></rect><text style="dominant-baseline: middle; font-size: 10.2px;" transform="translate(92.5653076171875,79)" y="0" x="0" id="text-entity-BOOK-12b90bf2-7af7-5ded-a124-d6647c4b972e-attr-3-name" class="er entityLabel">VARCHAR</text><rect height="22" width="22.68768310546875" y="68" x="141.2602996826172" class="er attributeBoxOdd"></rect><text style="dominant-baseline: middle; font-size: 10.2px;" transform="translate(146.2602996826172,79)" y="0" x="0" id="text-entity-BOOK-12b90bf2-7af7-5ded-a124-d6647c4b972e-attr-3-key" class="er entityLabel"></text><rect height="22" width="87.5653076171875" y="90" x="0" class="er attributeBoxEven"></rect><text style="dominant-baseline: middle; font-size: 10.2px;" transform="translate(5,101)" y="0" x="0" id="text-entity-BOOK-12b90bf2-7af7-5ded-a124-d6647c4b972e-attr-4-type" class="er entityLabel">purchase_price</text><rect height="22" width="53.69499206542969" y="90" x="87.5653076171875" class="er attributeBoxEven"></rect><text style="dominant-baseline: middle; font-size: 10.2px;" transform="translate(92.5653076171875,101)" y="0" x="0" id="text-entity-BOOK-12b90bf2-7af7-5ded-a124-d6647c4b972e-attr-4-name" class="er entityLabel">DECIMAL</text><rect height="22" width="22.68768310546875" y="90" x="141.2602996826172" class="er attributeBoxEven"></rect><text style="dominant-baseline: middle; font-size: 10.2px;" transform="translate(146.2602996826172,101)" y="0" x="0" id="text-entity-BOOK-12b90bf2-7af7-5ded-a124-d6647c4b972e-attr-4-key" class="er entityLabel"></text><rect height="22" width="87.5653076171875" y="112" x="0" class="er attributeBoxOdd"></rect><text style="dominant-baseline: middle; font-size: 10.2px;" transform="translate(5,123)" y="0" x="0" id="text-entity-BOOK-12b90bf2-7af7-5ded-a124-d6647c4b972e-attr-5-type" class="er entityLabel">selling_price</text><rect height="22" width="53.69499206542969" y="112" x="87.5653076171875" class="er attributeBoxOdd"></rect><text style="dominant-baseline: middle; font-size: 10.2px;" transform="translate(92.5653076171875,123)" y="0" x="0" id="text-entity-BOOK-12b90bf2-7af7-5ded-a124-d6647c4b972e-attr-5-name" class="er entityLabel">DECIMAL</text><rect height="22" width="22.68768310546875" y="112" x="141.2602996826172" class="er attributeBoxOdd"></rect><text style="dominant-baseline: middle; font-size: 10.2px;" transform="translate(146.2602996826172,123)" y="0" x="0" id="text-entity-BOOK-12b90bf2-7af7-5ded-a124-d6647c4b972e-attr-5-key" class="er entityLabel"></text><rect height="22" width="87.5653076171875" y="134" x="0" class="er attributeBoxEven"></rect><text style="dominant-baseline: middle; font-size: 10.2px;" transform="translate(5,145)" y="0" x="0" id="text-entity-BOOK-12b90bf2-7af7-5ded-a124-d6647c4b972e-attr-6-type" class="er entityLabel">publication_year</text><rect height="22" width="53.69499206542969" y="134" x="87.5653076171875" class="er attributeBoxEven"></rect><text style="dominant-baseline: middle; font-size: 10.2px;" transform="translate(92.5653076171875,145)" y="0" x="0" id="text-entity-BOOK-12b90bf2-7af7-5ded-a124-d6647c4b972e-attr-6-name" class="er entityLabel">INT</text><rect height="22" width="22.68768310546875" y="134" x="141.2602996826172" class="er attributeBoxEven"></rect><text style="dominant-baseline: middle; font-size: 10.2px;" transform="translate(146.2602996826172,145)" y="0" x="0" id="text-entity-BOOK-12b90bf2-7af7-5ded-a124-d6647c4b972e-attr-6-key" class="er entityLabel"></text></g><g transform="translate(20,232 )" id="entity-ORDER-36941e20-eb1d-50a3-81c5-00079b43c24a"><rect height="112" width="166.57164001464844" y="0" x="0" class="er entityBox"></rect><text style="dominant-baseline: middle; text-anchor: middle; font-size: 12px;" transform="translate(83.28582000732422,12)" y="0" x="0" id="text-entity-ORDER-36941e20-eb1d-50a3-81c5-00079b43c24a" class="er entityLabel">ORDER</text><rect height="22" width="90.18896484375" y="24" x="0" class="er attributeBoxOdd"></rect><text style="dominant-baseline: middle; font-size: 10.2px;" transform="translate(5,35)" y="0" x="0" id="text-entity-ORDER-36941e20-eb1d-50a3-81c5-00079b43c24a-attr-1-type" class="er entityLabel">order_id</text><rect height="22" width="53.69499206542969" y="24" x="90.18896484375" class="er attributeBoxOdd"></rect><text style="dominant-baseline: middle; font-size: 10.2px;" transform="translate(95.18896484375,35)" y="0" x="0" id="text-entity-ORDER-36941e20-eb1d-50a3-81c5-00079b43c24a-attr-1-name" class="er entityLabel">INT</text><rect height="22" width="22.68768310546875" y="24" x="143.8839569091797" class="er attributeBoxOdd"></rect><text style="dominant-baseline: middle; font-size: 10.2px;" transform="translate(148.8839569091797,35)" y="0" x="0" id="text-entity-ORDER-36941e20-eb1d-50a3-81c5-00079b43c24a-attr-1-key" class="er entityLabel">PK</text><rect height="22" width="90.18896484375" y="46" x="0" class="er attributeBoxEven"></rect><text style="dominant-baseline: middle; font-size: 10.2px;" transform="translate(5,57)" y="0" x="0" id="text-entity-ORDER-36941e20-eb1d-50a3-81c5-00079b43c24a-attr-2-type" class="er entityLabel">customer_id</text><rect height="22" width="53.69499206542969" y="46" x="90.18896484375" class="er attributeBoxEven"></rect><text style="dominant-baseline: middle; font-size: 10.2px;" transform="translate(95.18896484375,57)" y="0" x="0" id="text-entity-ORDER-36941e20-eb1d-50a3-81c5-00079b43c24a-attr-2-name" class="er entityLabel">INT</text><rect height="22" width="22.68768310546875" y="46" x="143.8839569091797" class="er attributeBoxEven"></rect><text style="dominant-baseline: middle; font-size: 10.2px;" transform="translate(148.8839569091797,57)" y="0" x="0" id="text-entity-ORDER-36941e20-eb1d-50a3-81c5-00079b43c24a-attr-2-key" class="er entityLabel">FK</text><rect height="22" width="90.18896484375" y="68" x="0" class="er attributeBoxOdd"></rect><text style="dominant-baseline: middle; font-size: 10.2px;" transform="translate(5,79)" y="0" x="0" id="text-entity-ORDER-36941e20-eb1d-50a3-81c5-00079b43c24a-attr-3-type" class="er entityLabel">order_date</text><rect height="22" width="53.69499206542969" y="68" x="90.18896484375" class="er attributeBoxOdd"></rect><text style="dominant-baseline: middle; font-size: 10.2px;" transform="translate(95.18896484375,79)" y="0" x="0" id="text-entity-ORDER-36941e20-eb1d-50a3-81c5-00079b43c24a-attr-3-name" class="er entityLabel">DATE</text><rect height="22" width="22.68768310546875" y="68" x="143.8839569091797" class="er attributeBoxOdd"></rect><text style="dominant-baseline: middle; font-size: 10.2px;" transform="translate(148.8839569091797,79)" y="0" x="0" id="text-entity-ORDER-36941e20-eb1d-50a3-81c5-00079b43c24a-attr-3-key" class="er entityLabel"></text><rect height="22" width="90.18896484375" y="90" x="0" class="er attributeBoxEven"></rect><text style="dominant-baseline: middle; font-size: 10.2px;" transform="translate(5,101)" y="0" x="0" id="text-entity-ORDER-36941e20-eb1d-50a3-81c5-00079b43c24a-attr-4-type" class="er entityLabel">payment_method</text><rect height="22" width="53.69499206542969" y="90" x="90.18896484375" class="er attributeBoxEven"></rect><text style="dominant-baseline: middle; font-size: 10.2px;" transform="translate(95.18896484375,101)" y="0" x="0" id="text-entity-ORDER-36941e20-eb1d-50a3-81c5-00079b43c24a-attr-4-name" class="er entityLabel">VARCHAR</text><rect height="22" width="22.68768310546875" y="90" x="143.8839569091797" class="er attributeBoxEven"></rect><text style="dominant-baseline: middle; font-size: 10.2px;" transform="translate(148.8839569091797,101)" y="0" x="0" id="text-entity-ORDER-36941e20-eb1d-50a3-81c5-00079b43c24a-attr-4-key" class="er entityLabel"></text></g><g transform="translate(160.1055908203125,466 )" id="entity-ORDERITEM-e5349d72-b47b-55be-8020-113016425f62"><rect height="112" width="151.62026977539062" y="0" x="0" class="er entityBox"></rect><text style="dominant-baseline: middle; text-anchor: middle; font-size: 12px;" transform="translate(75.81013488769531,12)" y="0" x="0" id="text-entity-ORDERITEM-e5349d72-b47b-55be-8020-113016425f62" class="er entityLabel">ORDER_ITEM</text><rect height="22" width="75.23759460449219" y="24" x="0" class="er attributeBoxOdd"></rect><text style="dominant-baseline: middle; font-size: 10.2px;" transform="translate(5,35)" y="0" x="0" id="text-entity-ORDERITEM-e5349d72-b47b-55be-8020-113016425f62-attr-1-type" class="er entityLabel">order_item_id</text><rect height="22" width="53.69499206542969" y="24" x="75.23759460449219" class="er attributeBoxOdd"></rect><text style="dominant-baseline: middle; font-size: 10.2px;" transform="translate(80.23759460449219,35)" y="0" x="0" id="text-entity-ORDERITEM-e5349d72-b47b-55be-8020-113016425f62-attr-1-name" class="er entityLabel">INT</text><rect height="22" width="22.68768310546875" y="24" x="128.93258666992188" class="er attributeBoxOdd"></rect><text style="dominant-baseline: middle; font-size: 10.2px;" transform="translate(133.93258666992188,35)" y="0" x="0" id="text-entity-ORDERITEM-e5349d72-b47b-55be-8020-113016425f62-attr-1-key" class="er entityLabel">PK</text><rect height="22" width="75.23759460449219" y="46" x="0" class="er attributeBoxEven"></rect><text style="dominant-baseline: middle; font-size: 10.2px;" transform="translate(5,57)" y="0" x="0" id="text-entity-ORDERITEM-e5349d72-b47b-55be-8020-113016425f62-attr-2-type" class="er entityLabel">order_id</text><rect height="22" width="53.69499206542969" y="46" x="75.23759460449219" class="er attributeBoxEven"></rect><text style="dominant-baseline: middle; font-size: 10.2px;" transform="translate(80.23759460449219,57)" y="0" x="0" id="text-entity-ORDERITEM-e5349d72-b47b-55be-8020-113016425f62-attr-2-name" class="er entityLabel">INT</text><rect height="22" width="22.68768310546875" y="46" x="128.93258666992188" class="er attributeBoxEven"></rect><text style="dominant-baseline: middle; font-size: 10.2px;" transform="translate(133.93258666992188,57)" y="0" x="0" id="text-entity-ORDERITEM-e5349d72-b47b-55be-8020-113016425f62-attr-2-key" class="er entityLabel">FK</text><rect height="22" width="75.23759460449219" y="68" x="0" class="er attributeBoxOdd"></rect><text style="dominant-baseline: middle; font-size: 10.2px;" transform="translate(5,79)" y="0" x="0" id="text-entity-ORDERITEM-e5349d72-b47b-55be-8020-113016425f62-attr-3-type" class="er entityLabel">ISBN</text><rect height="22" width="53.69499206542969" y="68" x="75.23759460449219" class="er attributeBoxOdd"></rect><text style="dominant-baseline: middle; font-size: 10.2px;" transform="translate(80.23759460449219,79)" y="0" x="0" id="text-entity-ORDERITEM-e5349d72-b47b-55be-8020-113016425f62-attr-3-name" class="er entityLabel">VARCHAR</text><rect height="22" width="22.68768310546875" y="68" x="128.93258666992188" class="er attributeBoxOdd"></rect><text style="dominant-baseline: middle; font-size: 10.2px;" transform="translate(133.93258666992188,79)" y="0" x="0" id="text-entity-ORDERITEM-e5349d72-b47b-55be-8020-113016425f62-attr-3-key" class="er entityLabel">FK</text><rect height="22" width="75.23759460449219" y="90" x="0" class="er attributeBoxEven"></rect><text style="dominant-baseline: middle; font-size: 10.2px;" transform="translate(5,101)" y="0" x="0" id="text-entity-ORDERITEM-e5349d72-b47b-55be-8020-113016425f62-attr-4-type" class="er entityLabel">quantity</text><rect height="22" width="53.69499206542969" y="90" x="75.23759460449219" class="er attributeBoxEven"></rect><text style="dominant-baseline: middle; font-size: 10.2px;" transform="translate(80.23759460449219,101)" y="0" x="0" id="text-entity-ORDERITEM-e5349d72-b47b-55be-8020-113016425f62-attr-4-name" class="er entityLabel">INT</text><rect height="22" width="22.68768310546875" y="90" x="128.93258666992188" class="er attributeBoxEven"></rect><text style="dominant-baseline: middle; font-size: 10.2px;" transform="translate(133.93258666992188,101)" y="0" x="0" id="text-entity-ORDERITEM-e5349d72-b47b-55be-8020-113016425f62-attr-4-key" class="er entityLabel"></text></g><g transform="translate(269.0428924560547,27.5 )" id="entity-in-994d3575-0b68-5057-8e1a-6095ed23b1da"><rect height="75" width="100" y="0" x="0" class="er entityBox"></rect><text style="dominant-baseline: middle; text-anchor: middle; font-size: 12px;" transform="translate(50,37.5)" y="0" x="0" id="text-entity-in-994d3575-0b68-5057-8e1a-6095ed23b1da" class="er entityLabel">in</text></g><rect height="14" width="34.015625" y="164" x="86.27819061279297" class="er relationshipLabelBox"></rect><text style="text-anchor: middle; dominant-baseline: middle; font-size: 12px;" y="171" x="103.28600311279297" id="rel21" class="er relationshipLabel">places</text><rect height="14" width="44.978515625" y="407.78045654296875" x="92.53817749023438" class="er relationshipLabelBox"></rect><text style="text-anchor: middle; dominant-baseline: middle; font-size: 12px;" y="414.78045654296875" x="115.02743530273438" id="rel22" class="er relationshipLabel">contains</text><rect height="14" width="46.24609375" y="417.3646545410156" x="328.95306396484375" class="er relationshipLabelBox"></rect><text style="text-anchor: middle; dominant-baseline: middle; font-size: 12px;" y="424.3646545410156" x="352.07611083984375" id="rel23" class="er relationshipLabel">included</text></svg>