<?xml version="1.0" encoding="utf-8"?>
<!-- created with bpmn-js / http://bpmn.io -->
<!DOCTYPE svg PUBLIC "-//W3C//DTD SVG 1.1//EN" "http://www.w3.org/Graphics/SVG/1.1/DTD/svg11.dtd">
<svg xmlns="http://www.w3.org/2000/svg" xmlns:xlink="http://www.w3.org/1999/xlink" width="1004" height="623" viewBox="151 57 1004 623" version="1.1"><defs><pattern id="djs-grid-pattern-377044" width="10" height="10" patternUnits="userSpaceOnUse"><circle cx="0.5" cy="0.5" r="0.5" style="fill: rgb(204, 204, 204);"/></pattern></defs><g class="djs-group"><g class="djs-element djs-shape" data-element-id="Participant_1r12pgc" style="display: block;" transform="matrix(1 0 0 1 156 62)"><g class="djs-visual"><rect x="0" y="0" width="994" height="250" rx="0" ry="0" style="stroke-linecap: round; stroke-linejoin: round; stroke: rgb(34, 36, 42); stroke-width: 1.5px; fill: white; fill-opacity: 0.95;"/><path style="fill: none; stroke-linecap: round; stroke-linejoin: round; stroke: rgb(34, 36, 42); stroke-width: 1.5px;" d="M30,0L30,250"/><text lineHeight="1.2" class="djs-label" style="font-family: Arial, sans-serif; font-size: 12px; font-weight: normal; fill: rgb(34, 36, 42);" transform="matrix(-1.83697e-16 -1 1 -1.83697e-16 0 250)"><tspan x="98.8076171875" y="18.6">Vendedor</tspan></text></g><rect x="-5" y="-5" rx="4" width="1004" height="260" class="djs-outline" style="fill: none;"/><rect class="djs-hit djs-hit-no-move" x="0" y="0" width="994" height="250" style="fill: none; stroke-opacity: 0; stroke: white; stroke-width: 15px;"/><rect class="djs-hit djs-hit-click-stroke" x="0" y="0" width="994" height="250" style="fill: none; stroke-opacity: 0; stroke: white; stroke-width: 15px;"/><rect class="djs-hit djs-hit-all" x="0" y="0" width="30" height="250" style="fill: none; stroke-opacity: 0; stroke: white; stroke-width: 15px;"/></g><g class="djs-children"><g class="djs-group"><g class="djs-element djs-shape" data-element-id="DataObjectReference_0a1vk0z" style="display: block;" transform="matrix(1 0 0 1 482 155)"><g class="djs-visual"><path d="m 0,0 28.23529411764706,0 7.058823529411765,8.196721311475411 0,40.98360655737705 -35.294117647058826,0 0,-49.18032786885246 28.23529411764706,0 0,8.196721311475411 7.058823529411765,0" style="fill: white; stroke-linecap: round; stroke-linejoin: round; stroke: rgb(34, 36, 42); stroke-width: 2px; fill-opacity: 0.95;"/></g><rect class="djs-hit djs-hit-all" x="0" y="0" width="36" height="50" style="fill: none; stroke-opacity: 0; stroke: white; stroke-width: 15px;"/><path d="M44.7648 11.3263L36.9892 2.64074C36.0451 1.58628 34.5651 0.988708 33.1904 0.988708H5.98667C3.22688 0.988708 0.989624 3.34892 0.989624 6.26039V55.0235C0.989624 57.9349 3.22688 60.2952 5.98667 60.2952H40.966C43.7257 60.2952 45.963 57.9349 45.963 55.0235V14.9459C45.963 13.5998 45.6407 12.3048 44.7648 11.3263Z" transform="translate(-6, -6)" class="djs-outline" style="stroke-width: 2px; fill: none;"/></g></g><g class="djs-group"><g class="djs-element djs-shape" data-element-id="Event_181k15s" style="display: block;" transform="matrix(1 0 0 1 372 162)"><g class="djs-visual"><circle cx="18" cy="18" r="18" style="stroke-linecap: round; stroke-linejoin: round; stroke: rgb(34, 36, 42); stroke-width: 2px; fill: white; fill-opacity: 0.95;"/></g><rect class="djs-hit djs-hit-all" x="0" y="0" width="36" height="36" style="fill: none; stroke-opacity: 0; stroke: white; stroke-width: 15px;"/><circle cx="18" cy="18" r="23" class="djs-outline" style="fill: none;"/></g></g><g class="djs-group"><g class="djs-element djs-shape" data-element-id="Activity_1j2axv7" style="display: block;" transform="matrix(1 0 0 1 590 140)"><g class="djs-visual"><rect x="0" y="0" width="100" height="80" rx="10" ry="10" style="stroke-linecap: round; stroke-linejoin: round; stroke: rgb(34, 36, 42); stroke-width: 2px; fill: white; fill-opacity: 0.95;"/><text lineHeight="1.2" class="djs-label" style="font-family: Arial, sans-serif; font-size: 12px; font-weight: normal; fill: rgb(34, 36, 42);"><tspan x="28.599609375" y="29.200000000000003">Valida a </tspan><tspan x="10.1396484375" y="43.6">disponibilidade</tspan><tspan x="21.146484375" y="58">do produto</tspan></text></g><rect class="djs-hit djs-hit-all" x="0" y="0" width="100" height="80" style="fill: none; stroke-opacity: 0; stroke: white; stroke-width: 15px;"/><rect x="-5" y="-5" rx="14" width="110" height="90" class="djs-outline" style="fill: none;"/></g></g><g class="djs-group"><g class="djs-element djs-shape" data-element-id="Activity_1us76dy" style="display: block;" transform="matrix(1 0 0 1 780 140)"><g class="djs-visual"><rect x="0" y="0" width="100" height="80" rx="10" ry="10" style="stroke-linecap: round; stroke-linejoin: round; stroke: rgb(34, 36, 42); stroke-width: 2px; fill: white; fill-opacity: 0.95;"/><text lineHeight="1.2" class="djs-label" style="font-family: Arial, sans-serif; font-size: 12px; font-weight: normal; fill: rgb(34, 36, 42);"><tspan x="10.1396484375" y="22">Envia o pedido </tspan><tspan x="24.15234375" y="36.4">ao cliente </tspan><tspan x="16.3173828125" y="50.8">verificando a </tspan><tspan x="14.4931640625" y="65.19999999999999">melhor forma</tspan></text></g><rect class="djs-hit djs-hit-all" x="0" y="0" width="100" height="80" style="fill: none; stroke-opacity: 0; stroke: white; stroke-width: 15px;"/><rect x="-5" y="-5" rx="14" width="110" height="90" class="djs-outline" style="fill: none;"/></g></g><g class="djs-group"><g class="djs-element djs-shape" data-element-id="Event_10eg9gh" style="display: block;" transform="matrix(1 0 0 1 932 162)"><g class="djs-visual"><circle cx="18" cy="18" r="18" style="stroke-linecap: round; stroke-linejoin: round; stroke: rgb(34, 36, 42); stroke-width: 4px; fill: white; fill-opacity: 0.95;"/></g><rect class="djs-hit djs-hit-all" x="0" y="0" width="36" height="36" style="fill: none; stroke-opacity: 0; stroke: white; stroke-width: 15px;"/><circle cx="18" cy="18" r="24" class="djs-outline" style="fill: none;"/></g></g><g class="djs-group"><g class="djs-element djs-connection" data-element-id="Flow_13fj58t" style="display: block;"><g class="djs-visual"><defs><marker id="marker-1j8o8uew8mx1m88d0vafgeg2w" viewBox="0 0 20 20" refX="11" refY="10" markerWidth="10" markerHeight="10" orient="auto"><path d="M 1 5 L 11 10 L 1 15 Z" style="stroke-linecap: round; stroke-linejoin: round; stroke: rgb(34, 36, 42); stroke-width: 1px; fill: rgb(34, 36, 42);"/></marker></defs><path data-corner-radius="5" style="fill: none; stroke-linecap: round; stroke-linejoin: round; stroke: rgb(34, 36, 42); stroke-width: 2px; marker-end: url('#marker-1j8o8uew8mx1m88d0vafgeg2w');" d="M880,180L932,180"/></g><rect x="875" y="175" rx="4" width="62" height="10" class="djs-outline" style="fill: none;"/><path d="M880,180L932,180" class="djs-hit djs-hit-stroke" style="fill: none; stroke-opacity: 0; stroke: white; stroke-width: 15px;"/></g></g></g></g><g class="djs-group"><g class="djs-element djs-shape" data-element-id="Participant_13cubcv" style="display: block;" transform="matrix(1 0 0 1 156 340)"><g class="djs-visual"><rect x="0" y="0" width="994" height="335" rx="0" ry="0" style="stroke-linecap: round; stroke-linejoin: round; stroke: rgb(34, 36, 42); stroke-width: 1.5px; fill: white; fill-opacity: 0.95;"/><path style="fill: none; stroke-linecap: round; stroke-linejoin: round; stroke: rgb(34, 36, 42); stroke-width: 1.5px;" d="M30,0L30,335"/><text lineHeight="1.2" class="djs-label" style="font-family: Arial, sans-serif; font-size: 12px; font-weight: normal; fill: rgb(34, 36, 42);" transform="matrix(-1.83697e-16 -1 1 -1.83697e-16 0 335)"><tspan x="139.3203125" y="18.6">Estoquista</tspan></text></g><rect x="-5" y="-5" rx="4" width="1004" height="345" class="djs-outline" style="fill: none;"/><rect class="djs-hit djs-hit-no-move" x="0" y="0" width="994" height="335" style="fill: none; stroke-opacity: 0; stroke: white; stroke-width: 15px;"/><rect class="djs-hit djs-hit-click-stroke" x="0" y="0" width="994" height="335" style="fill: none; stroke-opacity: 0; stroke: white; stroke-width: 15px;"/><rect class="djs-hit djs-hit-all" x="0" y="0" width="30" height="335" style="fill: none; stroke-opacity: 0; stroke: white; stroke-width: 15px;"/></g><g class="djs-children"><g class="djs-group"><g class="djs-element djs-shape" data-element-id="Gateway_1wovten" style="display: block;" transform="matrix(1 0 0 1 545 435)"><g class="djs-visual"><polygon points="25,0 50,25 25,50 0,25" style="stroke-linecap: round; stroke-linejoin: round; stroke: rgb(34, 36, 42); stroke-width: 2px; fill: white; fill-opacity: 0.95;"/><path d="m 16,15 7.42857142857143,9.714285714285715 -7.42857142857143,9.714285714285715 3.428571428571429,0 5.714285714285715,-7.464228571428572 5.714285714285715,7.464228571428572 3.428571428571429,0 -7.42857142857143,-9.714285714285715 7.42857142857143,-9.714285714285715 -3.428571428571429,0 -5.714285714285715,7.464228571428572 -5.714285714285715,-7.464228571428572 -3.428571428571429,0 z" style="fill: rgb(34, 36, 42); stroke-linecap: round; stroke-linejoin: round; stroke: rgb(34, 36, 42); stroke-width: 1px;"/></g><rect class="djs-hit djs-hit-all" x="0" y="0" width="50" height="50" style="fill: none; stroke-opacity: 0; stroke: white; stroke-width: 15px;"/><rect x="2" y="2" rx="4" width="46" height="46" class="djs-outline" style="transform-box: fill-box; transform: rotate(45deg); transform-origin: center center; fill: none;"/></g></g><g class="djs-group"><g class="djs-element djs-shape" data-element-id="Activity_0rvyoec" style="display: block;" transform="matrix(1 0 0 1 390 420)"><g class="djs-visual"><rect x="0" y="0" width="100" height="80" rx="10" ry="10" style="stroke-linecap: round; stroke-linejoin: round; stroke: rgb(34, 36, 42); stroke-width: 2px; fill: white; fill-opacity: 0.95;"/><text lineHeight="1.2" class="djs-label" style="font-family: Arial, sans-serif; font-size: 12px; font-weight: normal; fill: rgb(34, 36, 42);"><tspan x="10.640625" y="36.4">Recebe ordem </tspan><tspan x="21.4892578125" y="50.8">de compra</tspan></text></g><rect class="djs-hit djs-hit-all" x="0" y="0" width="100" height="80" style="fill: none; stroke-opacity: 0; stroke: white; stroke-width: 15px;"/><rect x="-5" y="-5" rx="14" width="110" height="90" class="djs-outline" style="fill: none;"/></g></g><g class="djs-group"><g class="djs-element djs-shape" data-element-id="Activity_0shw5rb" style="display: block;" transform="matrix(1 0 0 1 670 420)"><g class="djs-visual"><rect x="0" y="0" width="100" height="80" rx="10" ry="10" style="stroke-linecap: round; stroke-linejoin: round; stroke: rgb(34, 36, 42); stroke-width: 2px; fill: white; fill-opacity: 0.95;"/><text lineHeight="1.2" class="djs-label" style="font-family: Arial, sans-serif; font-size: 12px; font-weight: normal; fill: rgb(34, 36, 42);"><tspan x="14.8154296875" y="36.4">Encaminha o </tspan><tspan x="31.8193359375" y="50.8">pedido</tspan></text></g><rect class="djs-hit djs-hit-all" x="0" y="0" width="100" height="80" style="fill: none; stroke-opacity: 0; stroke: white; stroke-width: 15px;"/><rect x="-5" y="-5" rx="14" width="110" height="90" class="djs-outline" style="fill: none;"/></g></g><g class="djs-group"><g class="djs-element djs-shape" data-element-id="Activity_0wqfpr9" style="display: block;" transform="matrix(1 0 0 1 670 540)"><g class="djs-visual"><rect x="0" y="0" width="100" height="80" rx="10" ry="10" style="stroke-linecap: round; stroke-linejoin: round; stroke: rgb(34, 36, 42); stroke-width: 2px; fill: white; fill-opacity: 0.95;"/><text lineHeight="1.2" class="djs-label" style="font-family: Arial, sans-serif; font-size: 12px; font-weight: normal; fill: rgb(34, 36, 42);"><tspan x="25.4912109375" y="29.200000000000003">Solicita o </tspan><tspan x="21.146484375" y="43.6">produto ao </tspan><tspan x="21.3134765625" y="58">fornecedor</tspan></text></g><rect class="djs-hit djs-hit-all" x="0" y="0" width="100" height="80" style="fill: none; stroke-opacity: 0; stroke: white; stroke-width: 15px;"/><rect x="-5" y="-5" rx="14" width="110" height="90" class="djs-outline" style="fill: none;"/></g></g><g class="djs-group"><g class="djs-element djs-shape" data-element-id="DataStoreReference_0dpqlae" style="display: block;" transform="matrix(1 0 0 1 455 555)"><g class="djs-visual"><path d="m  0,6.65 l  0,36.885245901639344 c  1.639344262295082,8.196721311475411 47.540983606557376,8.196721311475411  49.18032786885246,0 l  0,-36.885245901639344 c -1.639344262295082,-8.196721311475411 -47.540983606557376,-8.196721311475411 -49.18032786885246,0c  1.639344262295082,8.196721311475411 47.540983606557376,8.196721311475411  49.18032786885246,0 m  -49.18032786885246,5.737704918032787c  1.639344262295082,8.196721311475411 47.540983606557376,8.196721311475411 49.18032786885246,0m  -49.18032786885246,5.737704918032787c  1.639344262295082,8.196721311475411 47.540983606557376,8.196721311475411  49.18032786885246,0" style="fill: white; stroke-linecap: round; stroke-linejoin: round; stroke: rgb(34, 36, 42); stroke-width: 2px; fill-opacity: 0.95;"/></g><rect class="djs-hit djs-hit-all" x="0" y="0" width="50" height="50" style="fill: none; stroke-opacity: 0; stroke: white; stroke-width: 15px;"/><path d="M1.03845 48.1347C1.03845 49.3511 1.07295 50.758 1.38342 52.064C1.69949 53.3938 2.32428 54.7154 3.56383 55.6428C6.02533 57.4841 10.1161 58.7685 14.8212 59.6067C19.5772 60.4538 25.1388 60.8738 30.6831 60.8738C36.2276 60.8738 41.7891 60.4538 46.545 59.6067C51.2504 58.7687 55.3412 57.4842 57.8028 55.6429C59.0424 54.7156 59.6673 53.3938 59.9834 52.064C60.2938 50.7579 60.3285 49.351 60.3285 48.1344V13.8415C60.3285 12.6249 60.2938 11.218 59.9834 9.91171C59.6673 8.58194 59.0423 7.2602 57.8027 6.33294C55.341 4.49168 51.2503 3.20723 46.545 2.36914C41.7891 1.522 36.2276 1.10204 30.6831 1.10205C25.1388 1.10206 19.5772 1.52206 14.8213 2.36923C10.1162 3.20734 6.02543 4.49183 3.5639 6.33314C2.32433 7.26038 1.69951 8.58206 1.38343 9.91181C1.07295 11.2179 1.03845 12.6247 1.03845 13.8411V48.1347Z" transform="translate(-6, -6)" class="djs-outline" style="stroke-width: 2px; fill: none;"/></g></g><g class="djs-group"><g class="djs-element djs-connection" data-element-id="Flow_0m3y1pu" style="display: block;"><g class="djs-visual"><defs><marker id="marker-cttsz6mhn9y5yqbrbt8w5cuqj" viewBox="0 0 20 20" refX="11" refY="10" markerWidth="10" markerHeight="10" orient="auto"><path d="M 1 5 L 11 10 L 1 15 Z" style="stroke-linecap: round; stroke-linejoin: round; stroke: rgb(34, 36, 42); stroke-width: 1px; fill: rgb(34, 36, 42);"/></marker></defs><path data-corner-radius="5" style="fill: none; stroke-linecap: round; stroke-linejoin: round; stroke: rgb(34, 36, 42); stroke-width: 2px; marker-end: url('#marker-cttsz6mhn9y5yqbrbt8w5cuqj');" d="M490,460L545,460"/></g><rect x="485" y="455" rx="4" width="65" height="10" class="djs-outline" style="fill: none;"/><path d="M490,460L545,460" class="djs-hit djs-hit-stroke" style="fill: none; stroke-opacity: 0; stroke: white; stroke-width: 15px;"/></g></g><g class="djs-group"><g class="djs-element djs-connection" data-element-id="Flow_0c8kimm" style="display: block;"><g class="djs-visual"><defs><marker id="marker-2bhsh2zsv6uu2ph4e2i0rhocz" viewBox="0 0 20 20" refX="11" refY="10" markerWidth="10" markerHeight="10" orient="auto"><path d="M 1 5 L 11 10 L 1 15 Z" style="stroke-linecap: round; stroke-linejoin: round; stroke: rgb(34, 36, 42); stroke-width: 1px; fill: rgb(34, 36, 42);"/></marker></defs><path data-corner-radius="5" style="fill: none; stroke-linecap: round; stroke-linejoin: round; stroke: rgb(34, 36, 42); stroke-width: 2px; marker-end: url('#marker-2bhsh2zsv6uu2ph4e2i0rhocz');" d="M595,460L670,460"/></g><rect x="590" y="455" rx="4" width="85" height="10" class="djs-outline" style="fill: none;"/><path d="M595,460L670,460" class="djs-hit djs-hit-stroke" style="fill: none; stroke-opacity: 0; stroke: white; stroke-width: 15px;"/></g></g><g class="djs-group"><g class="djs-element djs-connection" data-element-id="Flow_00a5ym8" style="display: block;"><g class="djs-visual"><defs><marker id="marker-3thvmg9z3bphskcjwxutvp7ly" viewBox="0 0 20 20" refX="11" refY="10" markerWidth="10" markerHeight="10" orient="auto"><path d="M 1 5 L 11 10 L 1 15 Z" style="stroke-linecap: round; stroke-linejoin: round; stroke: rgb(34, 36, 42); stroke-width: 1px; fill: rgb(34, 36, 42);"/></marker></defs><path data-corner-radius="5" style="fill: none; stroke-linecap: round; stroke-linejoin: round; stroke: rgb(34, 36, 42); stroke-width: 2px; marker-end: url('#marker-3thvmg9z3bphskcjwxutvp7ly');" d="M570,485L570,575C570,577.5,572.5,580,575,580L670,580"/></g><rect x="565" y="480" rx="4" width="110" height="105" class="djs-outline" style="fill: none;"/><path d="M570,485L570,580L670,580" class="djs-hit djs-hit-stroke" style="fill: none; stroke-opacity: 0; stroke: white; stroke-width: 15px;"/></g></g><g class="djs-group"><g class="djs-element djs-connection" data-element-id="Flow_0g1zy2p" style="display: block;"><g class="djs-visual"><defs><marker id="marker-aq634ccw3hwx8drl3iia23txf" viewBox="0 0 20 20" refX="11" refY="10" markerWidth="10" markerHeight="10" orient="auto"><path d="M 1 5 L 11 10 L 1 15 Z" style="stroke-linecap: round; stroke-linejoin: round; stroke: rgb(34, 36, 42); stroke-width: 1px; fill: rgb(34, 36, 42);"/></marker></defs><path data-corner-radius="5" style="fill: none; stroke-linecap: round; stroke-linejoin: round; stroke: rgb(34, 36, 42); stroke-width: 2px; marker-end: url('#marker-aq634ccw3hwx8drl3iia23txf');" d="M720,540L720,500"/></g><rect x="715" y="495" rx="4" width="10" height="50" class="djs-outline" style="fill: none;"/><path d="M720,540L720,500" class="djs-hit djs-hit-stroke" style="fill: none; stroke-opacity: 0; stroke: white; stroke-width: 15px;"/></g></g></g></g><g class="djs-group"><g class="djs-element djs-shape" data-element-id="DataObjectReference_0a1vk0z_label" style="display: block;" transform="matrix(1 0 0 1 458 212)"><g class="djs-visual"><text lineHeight="1.2" class="djs-label" style="font-family: Arial, sans-serif; font-size: 11px; font-weight: normal; fill: rgb(34, 36, 42);"><tspan x="0" y="9.899999999999999">Order de compra</tspan></text></g><rect class="djs-hit djs-hit-all" x="0" y="0" width="84" height="14" style="fill: none; stroke-opacity: 0; stroke: white; stroke-width: 15px;"/><rect x="-5" y="-5" rx="4" width="94" height="24" class="djs-outline" style="fill: none;"/></g></g><g class="djs-group"><g class="djs-element djs-shape" data-element-id="Gateway_1wovten_label" style="display: block;" transform="matrix(1 0 0 1 529 397.5)"><g class="djs-visual"><text lineHeight="1.2" class="djs-label" style="font-family: Arial, sans-serif; font-size: 11px; font-weight: normal; fill: rgb(34, 36, 42);"><tspan x="0" y="9.899999999999999">O produto existe </tspan><tspan x="10.078125" y="23.099999999999998">no estoque?</tspan></text></g><rect class="djs-hit djs-hit-all" x="0" y="0" width="81" height="27" style="fill: none; stroke-opacity: 0; stroke: white; stroke-width: 15px;"/><rect x="-5" y="-5" rx="4" width="91" height="37" class="djs-outline" style="fill: none;"/></g></g><g class="djs-group"><g class="djs-element djs-shape" data-element-id="Flow_0c8kimm_label" style="display: block;" transform="matrix(1 0 0 1 623 442)"><g class="djs-visual"><text lineHeight="1.2" class="djs-label" style="font-family: Arial, sans-serif; font-size: 11px; font-weight: normal; fill: rgb(34, 36, 42);"><tspan x="0" y="9.899999999999999">Sim</tspan></text></g><rect class="djs-hit djs-hit-all" x="0" y="0" width="19" height="14" style="fill: none; stroke-opacity: 0; stroke: white; stroke-width: 15px;"/><rect x="-5" y="-5" rx="4" width="29" height="24" class="djs-outline" style="fill: none;"/></g></g><g class="djs-group"><g class="djs-element djs-shape" data-element-id="Flow_00a5ym8_label" style="display: block;" transform="matrix(1 0 0 1 575 543)"><g class="djs-visual"><text lineHeight="1.2" class="djs-label" style="font-family: Arial, sans-serif; font-size: 11px; font-weight: normal; fill: rgb(34, 36, 42);"><tspan x="0" y="9.899999999999999">Não</tspan></text></g><rect class="djs-hit djs-hit-all" x="0" y="0" width="21" height="14" style="fill: none; stroke-opacity: 0; stroke: white; stroke-width: 15px;"/><rect x="-5" y="-5" rx="4" width="31" height="24" class="djs-outline" style="fill: none;"/></g></g><g class="djs-group"><g class="djs-element djs-shape" data-element-id="DataStoreReference_0dpqlae_label" style="display: block;" transform="matrix(1 0 0 1 444 612)"><g class="djs-visual"><text lineHeight="1.2" class="djs-label" style="font-family: Arial, sans-serif; font-size: 11px; font-weight: normal; fill: rgb(34, 36, 42);"><tspan x="6.976318359375" y="9.899999999999999">Consulta no </tspan><tspan x="0" y="23.099999999999998">banco de daos</tspan></text></g><rect class="djs-hit djs-hit-all" x="0" y="0" width="73" height="27" style="fill: none; stroke-opacity: 0; stroke: white; stroke-width: 15px;"/><rect x="-5" y="-5" rx="4" width="83" height="37" class="djs-outline" style="fill: none;"/></g></g><g class="djs-group"><g class="djs-element djs-connection" data-element-id="DataOutputAssociation_1hkcevc" style="display: block;"><g class="djs-visual"><defs><marker id="marker-1o5zha6ps4tkqetgv2xzbqgs3" viewBox="0 0 20 20" refX="11" refY="10" markerWidth="10" markerHeight="10" orient="auto"><path d="M 1 5 L 11 10 L 1 15" style="fill: none; stroke-linecap: round; stroke-linejoin: round; stroke: rgb(34, 36, 42); stroke-width: 1.5px; stroke-dasharray: 10000, 1;"/></marker></defs><path data-corner-radius="5" style="fill: none; stroke-linecap: round; stroke-linejoin: round; stroke: rgb(34, 36, 42); stroke-width: 2px; marker-end: url('#marker-1o5zha6ps4tkqetgv2xzbqgs3'); stroke-dasharray: 0, 5;" d="M408,179L482,176"/></g><rect x="403" y="171" rx="4" width="84" height="13" class="djs-outline" style="fill: none;"/><path d="M408,179L482,176" class="djs-hit djs-hit-stroke" style="fill: none; stroke-opacity: 0; stroke: white; stroke-width: 15px;"/></g></g><g class="djs-group"><g class="djs-element djs-connection" data-element-id="DataInputAssociation_1nqiv1q" style="display: block;"><g class="djs-visual"><defs><marker id="marker-bcf57vq8cyiml7xsy6s6nep8g" viewBox="0 0 20 20" refX="11" refY="10" markerWidth="10" markerHeight="10" orient="auto"><path d="M 1 5 L 11 10 L 1 15" style="fill: none; stroke-linecap: round; stroke-linejoin: round; stroke: rgb(34, 36, 42); stroke-width: 1.5px; stroke-dasharray: 10000, 1;"/></marker></defs><path data-corner-radius="5" style="fill: none; stroke-linecap: round; stroke-linejoin: round; stroke: rgb(34, 36, 42); stroke-width: 2px; marker-end: url('#marker-bcf57vq8cyiml7xsy6s6nep8g'); stroke-dasharray: 0, 5;" d="M518,180L590,180"/></g><rect x="513" y="175" rx="4" width="82" height="10" class="djs-outline" style="fill: none;"/><path d="M518,180L590,180" class="djs-hit djs-hit-stroke" style="fill: none; stroke-opacity: 0; stroke: white; stroke-width: 15px;"/></g></g><g class="djs-group"><g class="djs-element djs-connection" data-element-id="Flow_1gfdutn" style="display: block;"><g class="djs-visual"><defs><marker id="marker-71ejl0pld7oxexweh26jqiah4" viewBox="0 0 20 20" refX="8.5" refY="5" markerWidth="20" markerHeight="20" orient="auto"><path d="m 1 5 l 0 -3 l 7 3 l -7 3 z" style="stroke-linecap: round; stroke-linejoin: round; stroke: rgb(34, 36, 42); stroke-width: 1px; fill: white; stroke-dasharray: 10000, 1;"/></marker><marker id="marker-cvd78ah5l7kzubq339qx64k0w" viewBox="0 0 20 20" refX="6" refY="6" markerWidth="20" markerHeight="20" orient="auto"><circle cx="6" cy="6" r="3.5" style="stroke-linecap: round; stroke-linejoin: round; stroke: rgb(34, 36, 42); stroke-width: 1px; fill: white; stroke-dasharray: 10000, 1;"/></marker></defs><path data-corner-radius="5" style="fill: none; stroke-linecap: round; stroke-linejoin: round; stroke: rgb(34, 36, 42); stroke-width: 1.5px; marker-end: url('#marker-71ejl0pld7oxexweh26jqiah4'); marker-start: url('#marker-cvd78ah5l7kzubq339qx64k0w'); stroke-dasharray: 10, 11;" d="M640,220L640,315C640,317.5,637.5,320,635,320L445,320C442.5,320,440,322.5,440,325L440,420"/></g><rect x="435" y="215" rx="4" width="210" height="210" class="djs-outline" style="fill: none;"/><path d="M640,220L640,320L440,320L440,420" class="djs-hit djs-hit-stroke" style="fill: none; stroke-opacity: 0; stroke: white; stroke-width: 15px;"/></g></g><g class="djs-group"><g class="djs-element djs-connection" data-element-id="Flow_1wgu3p9" style="display: block;"><g class="djs-visual"><defs><marker id="marker-3uab7g5wmtw41kp06vth1j9wt" viewBox="0 0 20 20" refX="8.5" refY="5" markerWidth="20" markerHeight="20" orient="auto"><path d="m 1 5 l 0 -3 l 7 3 l -7 3 z" style="stroke-linecap: round; stroke-linejoin: round; stroke: rgb(34, 36, 42); stroke-width: 1px; fill: white; stroke-dasharray: 10000, 1;"/></marker><marker id="marker-1d9ky8jqvancressfzsjm8fjs" viewBox="0 0 20 20" refX="6" refY="6" markerWidth="20" markerHeight="20" orient="auto"><circle cx="6" cy="6" r="3.5" style="stroke-linecap: round; stroke-linejoin: round; stroke: rgb(34, 36, 42); stroke-width: 1px; fill: white; stroke-dasharray: 10000, 1;"/></marker></defs><path data-corner-radius="5" style="fill: none; stroke-linecap: round; stroke-linejoin: round; stroke: rgb(34, 36, 42); stroke-width: 1.5px; marker-end: url('#marker-3uab7g5wmtw41kp06vth1j9wt'); marker-start: url('#marker-1d9ky8jqvancressfzsjm8fjs'); stroke-dasharray: 10, 11;" d="M720,420L720,325C720,322.5,722.5,320,725,320L825,320C827.5,320,830,317.5,830,315L830,220"/></g><rect x="715" y="215" rx="4" width="120" height="210" class="djs-outline" style="fill: none;"/><path d="M720,420L720,320L830,320L830,220" class="djs-hit djs-hit-stroke" style="fill: none; stroke-opacity: 0; stroke: white; stroke-width: 15px;"/></g></g><g class="djs-group"><g class="djs-element djs-connection" data-element-id="DataOutputAssociation_1m30qmd" style="display: block;"><g class="djs-visual"><defs><marker id="marker-cau0mn2py4dtdc9t9q83hm37s" viewBox="0 0 20 20" refX="11" refY="10" markerWidth="10" markerHeight="10" orient="auto"><path d="M 1 5 L 11 10 L 1 15" style="fill: none; stroke-linecap: round; stroke-linejoin: round; stroke: rgb(34, 36, 42); stroke-width: 1.5px; stroke-dasharray: 10000, 1;"/></marker></defs><path data-corner-radius="5" style="fill: none; stroke-linecap: round; stroke-linejoin: round; stroke: rgb(34, 36, 42); stroke-width: 2px; marker-end: url('#marker-cau0mn2py4dtdc9t9q83hm37s'); stroke-dasharray: 0, 5;" d="M456,500L477,555"/></g><rect x="451" y="495" rx="4" width="31" height="65" class="djs-outline" style="fill: none;"/><path d="M456,500L477,555" class="djs-hit djs-hit-stroke" style="fill: none; stroke-opacity: 0; stroke: white; stroke-width: 15px;"/></g></g></svg>